PathFileType	4	(X/Y/Z)	/Users/itak/Documents/Research/Walk-IL/dataset/trc/00253_00009.trc
DataRate	CameraRate	NumFrames	NumMarkers	Units	OrigDataRate	OrigDataStartFrame	OrigNumFrames
100.000000	100.000000	4	54	mm	100.000000	296	474
Frame#	Time	RPSI			LPSI			L3			STRN			T10			C7			CLAV			RBAK			LBAK			LSHO			LUPA			LAEL			LAOL			LWTS			LWPS			LFRA			LIFD			LHPS			LHTS			RSHO			RUPA			RAEL			RAOL			RWTS			RWPS			RFRA			RIFD			RHPS			RBHD			LFHD			RFHD			LBHD			LHIP			RHIP			RASI			LASI			LKNE			LTHI			LANK			LTIP			LTOE			LMT1			LMT5			LHEE			RKNE			RTHI			RANK			RTIP			RTOE			RMT1			RMT5			RHEE			RHTS			*53			
		X1	Y1	Z1	X2	Y2	Z2	X3	Y3	Z3	X4	Y4	Z4	X5	Y5	Z5	X6	Y6	Z6	X7	Y7	Z7	X8	Y8	Z8	X9	Y9	Z9	X10	Y10	Z10	X11	Y11	Z11	X12	Y12	Z12	X13	Y13	Z13	X14	Y14	Z14	X15	Y15	Z15	X16	Y16	Z16	X17	Y17	Z17	X18	Y18	Z18	X19	Y19	Z19	X20	Y20	Z20	X21	Y21	Z21	X22	Y22	Z22	X23	Y23	Z23	X24	Y24	Z24	X25	Y25	Z25	X26	Y26	Z26	X27	Y27	Z27	X28	Y28	Z28	X29	Y29	Z29	X30	Y30	Z30	X31	Y31	Z31	X32	Y32	Z32	X33	Y33	Z33	X34	Y34	Z34	X35	Y35	Z35	X36	Y36	Z36	X37	Y37	Z37	X38	Y38	Z38	X39	Y39	Z39	X40	Y40	Z40	X41	Y41	Z41	X42	Y42	Z42	X43	Y43	Z43	X44	Y44	Z44	X45	Y45	Z45	X46	Y46	Z46	X47	Y47	Z47	X48	Y48	Z48	X49	Y49	Z49	X50	Y50	Z50	X51	Y51	Z51	X52	Y52	Z52	X53	Y53	Z53	X54	Y54	Z54	

297	2.96	-393.7708129882812	1025.011840820312	-73.28758239746094	-292.4365844726562	1037.051635742188	-136.8341217041016	-333.9557495117188	1119.985595703125	-118.2963943481445	-195.4991607666016	1306.93505859375	92.86282348632812	-338.2347106933594	1245.961791992188	-112.2164916992188	-303.7995910644531	1507.718994140625	-66.35040283203125	-211.4709014892578	1423.97021484375	70.64142608642578	-403.5366821289062	1368.09326171875	-86.44870758056641	-224.3083038330078	1468.66943359375	-146.5091857910156	-130.3786773681641	1469.770141601562	-104.6574020385742	-74.78870391845703	1356.027954101562	-171.1364288330078	-12.73897933959961	1154.013427734375	-166.4302673339844	-88.12480926513672	1121.75390625	-195.5623168945312	32.50847625732422	944.9570922851562	-25.89133834838867	86.20985412597656	927.3604736328125	-90.30880737304688	29.37140846252441	1055.399658203125	-142.0165863037109	77.36079406738281	761.5914916992188	5.99509334564209	110.7953643798828	847.5056762695312	-58.31283569335938	90.87557983398438	858.9816284179688	6.245400905609131	-411.2728271484375	1470.869384765625	76.30740356445312	-477.0839233398438	1405.982055664062	96.04250335693359	-530.82763671875	1127.616577148438	96.66072845458984	-471.84423828125	1120.040649414062	22.16600036621094	-413.95654296875	921.1294555664062	196.5564117431641	-496.2239685058594	902.4674072265625	187.028076171875	-525.931640625	1059.512084960938	127.519660949707	-392.1038208007812	727.600830078125	211.2755584716797	-469.6178894042969	796.99365234375	222.6427307128906	-309.1054992675781	1668.207397460938	-5.772756576538086	-138.5093078613281	1700.405029296875	141.0136108398438	-229.3340454101562	1695.911987304688	182.4049377441406	-169.4377746582031	1676.701416015625	-19.35416984558105	-115.7098083496094	988.6131591796875	-127.0508880615234	-428.45751953125	986.9086303710938	67.28729248046875	-347.1784362792969	1038.009521484375	126.8345489501953	-106.9781951904297	1032.86962890625	-17.17947387695312	-90.29776763916016	510.5421752929688	-13.13960838317871	-81.68329620361328	652.4024047851562	-51.14929962158203	-144.0583343505859	31.47349548339844	-100.6149520874023	-109.230712890625	281.7795715332031	-61.48453140258789	-100.791862487793	42.15435028076172	118.292236328125	-168.4993438720703	40.15740966796875	76.23155212402344	-71.92880249023438	32.45727920532227	6.125418186187744	-218.5295257568359	40.91967010498047	-131.3661041259766	-346.3786926269531	507.8023681640625	161.7577514648438	-382.2284240722656	773.0159912109375	145.5118255615234	-537.702392578125	171.4457092285156	-131.1352081298828	-361.6737060546875	400.3231201171875	120.5734710693359	-418.7936096191406	61.28937530517578	-3.130638599395752	-406.7649841308594	78.69148254394531	-69.40562438964844	-519.521240234375	108.0293121337891	-41.02297973632812	-511.8093566894531	203.9036102294922	-204.6638336181641	-399.5615844726562	801.5003662109375	239.041259765625	nan	nan	nan	
298	2.97	-388.8136291503906	1025.114135742188	-69.76873016357422	-286.8901062011719	1037.089233398438	-132.6863555908203	-328.4481201171875	1120.294555664062	-114.4508590698242	-191.2305450439453	1306.915649414062	97.95072174072266	-332.3639526367188	1246.45166015625	-108.6031112670898	-297.6084899902344	1508.105834960938	-61.95254516601562	-206.8260955810547	1424.0185546875	75.82792663574219	-397.3321838378906	1368.637329101562	-83.26306915283203	-217.286376953125	1469.1533203125	-141.4552917480469	-124.0160598754883	1470.151123046875	-98.42453002929688	-66.94081878662109	1356.804077148438	-163.7803955078125	-2.595808506011963	1155.588012695312	-156.880615234375	-76.81185150146484	1122.242309570312	-187.4413299560547	42.51200866699219	948.60986328125	-13.31274795532227	97.67514801025391	931.104736328125	-76.3897705078125	40.20813369750977	1057.760131835938	-130.6468353271484	89.16937255859375	766.2094116210938	21.44350242614746	122.8375091552734	851.9387817382812	-43.046630859375	101.3417587280273	863.819580078125	20.94919395446777	-406.5408935546875	1471.146728515625	79.55294036865234	-472.6700439453125	1406.371215820312	98.51938629150391	-527.1058959960938	1128.100830078125	98.30056762695312	-467.3726501464844	1120.436401367188	24.41651725769043	-410.0946960449219	923.001953125	200.5594482421875	-492.1130981445312	903.4585571289062	190.0498504638672	-522.2819213867188	1060.0478515625	129.4651031494141	-386.2622985839844	730.0999145507812	217.8220062255859	-464.8515014648438	798.6795654296875	227.3048248291016	-303.3323974609375	1668.472412109375	-1.141455888748169	-133.6951599121094	1700.3203125	146.7451934814453	-224.7718658447266	1696.039916992188	187.5167999267578	-163.6331787109375	1676.685180664062	-13.82933521270752	-110.2443466186523	988.442626953125	-122.132682800293	-424.0887451171875	987.6541137695312	70.78384399414062	-342.9156494140625	1038.47021484375	130.5184020996094	-101.7368927001953	1033.028076171875	-12.07427978515625	-88.08938598632812	509.7804565429688	-11.14414978027344	-78.51653289794922	651.930419921875	-47.93507385253906	-144.1700134277344	31.51870346069336	-100.5205078125	-108.0873641967773	281.3820495605469	-60.47180938720703	-100.7618713378906	42.06341171264648	118.431526184082	-168.4716644287109	40.11125564575195	76.32522583007812	-71.92412567138672	32.48292922973633	6.160717964172363	-218.6383514404297	41.10966873168945	-131.293701171875	-338.5901184082031	509.6207580566406	171.3389739990234	-377.3332824707031	774.4252319335938	151.3305511474609	-521.9852905273438	166.5592346191406	-118.9566421508789	-352.0518188476562	401.5367431640625	131.3368682861328	-403.2687377929688	60.49332809448242	12.59598159790039	-390.4502563476562	76.84496307373047	-53.74469757080078	-504.1037902832031	105.0972671508789	-27.49578475952148	-495.6057434082031	198.1489715576172	-192.7241668701172	-395.0995788574219	804.1096801757812	244.6837921142578	nan	nan	nan	
299	2.98	-383.8828125	1025.19580078125	-66.20941162109375	-281.3586120605469	1037.125610351562	-128.5319061279297	-322.9865417480469	1120.515258789062	-110.520637512207	-187.0242919921875	1306.866943359375	103.0283889770508	-326.5868225097656	1246.867797851562	-104.9590148925781	-291.5394897460938	1508.427612304688	-57.53317260742188	-202.2833557128906	1424.03564453125	81.00686645507812	-391.2419128417969	1369.110717773438	-80.01848602294922	-210.4507141113281	1469.56591796875	-136.3857574462891	-117.8081359863281	1470.515258789062	-92.2119140625	-59.28783798217773	1357.556030273438	-156.4268798828125	7.251302719116211	1157.161010742188	-147.3083648681641	-65.81463623046875	1122.728637695312	-179.1518249511719	52.25286102294922	952.2380981445312	-0.7599151134490967	108.7634658813477	934.8982543945312	-62.54231262207031	50.69614791870117	1060.123901367188	-119.2838592529297	100.4060974121094	770.683837890625	36.46865844726562	134.3795776367188	856.3432006835938	-28.01796913146973	111.372917175293	868.482421875	35.42489242553711	-401.9034729003906	1471.377319335938	82.83036041259766	-468.3243713378906	1406.714111328125	101.050895690918	-523.3721313476562	1128.5166015625	99.96737670898438	-462.9440002441406	1120.775390625	26.68327903747559	-406.3092346191406	924.7694702148438	204.5955657958984	-488.0845336914062	904.4224243164062	193.1235046386719	-518.6354370117188	1060.528442382812	131.4412384033203	-380.7433471679688	732.4818725585938	224.2819519042969	-460.3247985839844	800.3363037109375	231.9198150634766	-297.6953735351562	1668.731201171875	3.56409740447998	-128.9694366455078	1700.11376953125	152.5276947021484	-220.2682189941406	1696.03759765625	192.7112121582031	-157.9495086669922	1676.63720703125	-8.247172355651855	-104.8422241210938	988.2623291015625	-117.1507873535156	-419.7644958496094	988.337890625	74.31290435791016	-338.7789306640625	1038.882934570312	134.2510833740234	-96.52079010009766	1033.192504882812	-6.897199630737305	-85.85701751708984	509.0299377441406	-9.201391220092773	-75.35172271728516	651.464599609375	-44.73097610473633	-144.2725830078125	31.55892562866211	-100.4424209594727	-106.9382095336914	281.0156555175781	-59.52882766723633	-100.6918182373047	42.0080680847168	118.545051574707	-168.4114685058594	40.10260009765625	76.38383483886719	-71.89772033691406	32.49160003662109	6.184163570404053	-218.7318878173828	41.31223297119141	-131.2348175048828	-331.0032653808594	511.4126586914062	180.7872009277344	-372.5560913085938	775.80322265625	157.1288909912109	-505.9922180175781	160.7227630615234	-106.0007934570312	-342.5573425292969	402.5712890625	142.0640258789062	-387.2234191894531	59.44445419311523	29.17465019226074	-373.663330078125	74.66529083251953	-37.25075149536133	-488.1903381347656	101.5610198974609	-13.08656978607178	-479.2621765136719	191.3642120361328	-180.0645904541016	-390.883544921875	806.577880859375	250.2721557617188	nan	nan	nan	
300	2.99	-378.9542236328125	1025.260498046875	-62.60060119628906	-275.8321228027344	1037.164306640625	-124.3685684204102	-317.5492858886719	1120.657958984375	-106.4999694824219	-182.8831176757812	1306.791015625	108.1086196899414	-320.9040832519531	1247.206420898438	-101.2829437255859	-285.5924682617188	1508.683349609375	-53.09565353393555	-197.8432312011719	1424.021362304688	86.18381500244141	-385.2597961425781	1369.50390625	-76.72071838378906	-203.7905426025391	1469.903442382812	-131.2974548339844	-111.7443161010742	1470.85205078125	-86.01219940185547	-51.8260612487793	1358.271728515625	-149.0777740478516	16.79421043395996	1158.7109375	-137.7387847900391	-55.17583465576172	1123.194702148438	-170.7149810791016	61.70672607421875	955.8297119140625	11.74573421478271	119.4576950073242	938.6979370117188	-48.79681015014648	60.83471298217773	1062.469116210938	-107.962272644043	111.0942001342773	775.0137329101562	51.13141250610352	145.4126586914062	860.685302734375	-13.22733020782471	120.9918899536133	872.978759765625	49.68182373046875	-397.3633728027344	1471.562133789062	86.13453674316406	-464.0574035644531	1407.0087890625	103.6284866333008	-519.6182861328125	1128.861450195312	101.6881942749023	-458.5771179199219	1121.052124023438	28.97840309143066	-402.5980834960938	926.404541015625	208.6640930175781	-484.1339111328125	905.3363647460938	196.2535095214844	-514.97998046875	1060.946411132812	133.4740905761719	-375.5684204101562	734.6887817382812	230.5928192138672	-456.0385131835938	801.9122314453125	236.4373474121094	-292.2041625976562	1668.98046875	8.333479881286621	-124.340087890625	1699.802612304688	158.3567962646484	-215.8434143066406	1695.912841796875	197.9781646728516	-152.3864135742188	1676.565063476562	-2.612648487091064	-99.49301147460938	988.08203125	-112.1060409545898	-415.4713439941406	988.9505004882812	77.8780517578125	-334.7630615234375	1039.2412109375	138.0431365966797	-91.34992218017578	1033.3447265625	-1.646624803543091	-83.60829925537109	508.2905883789062	-7.30317497253418	-72.19448089599609	651.00146484375	-41.53620910644531	-144.3725738525391	31.60189056396484	-100.3751373291016	-105.7961959838867	280.6782531738281	-58.641845703125	-100.585075378418	41.98093795776367	118.6398086547852	-168.3302917480469	40.11604690551758	76.4091796875	-71.85524749755859	32.48264312744141	6.197852611541748	-218.8117523193359	41.52768707275391	-131.1824493408203	-323.6217651367188	513.1857299804688	190.1010589599609	-367.9012451171875	777.1524658203125	162.9033050537109	-489.7519226074219	154.0844421386719	-92.28313446044922	-333.2296447753906	403.4604797363281	152.7584381103516	-370.849853515625	58.26395797729492	46.69010543823242	-356.5420227050781	72.25649261474609	-19.84880256652832	-471.8953857421875	97.57682800292969	2.210855722427368	-462.7329711914062	183.6419982910156	-166.6900177001953	-386.9227905273438	808.8604736328125	255.7597808837891	nan	nan	nan	
